<?xml version="1.0" encoding="UTF-8" standalone="no"?>
<!DOCTYPE svg PUBLIC "-//W3C//DTD SVG 1.1//EN"
 "http://www.w3.org/Graphics/SVG/1.1/DTD/svg11.dtd">
<!-- Generated by graphviz version 11.0.0 (20240428.1522)
 -->
<!-- Title: Tree Pages: 1 -->
<svg width="1967pt" height="506pt"
 viewBox="0.00 0.00 1967.38 505.50" xmlns="http://www.w3.org/2000/svg" xmlns:xlink="http://www.w3.org/1999/xlink">
<g id="graph0" class="graph" transform="scale(1 1) rotate(0) translate(4 501.5)">
<title>Tree</title>
<polygon fill="white" stroke="none" points="-4,4 -4,-501.5 1963.38,-501.5 1963.38,4 -4,4"/>
<!-- 0 -->
<g id="node1" class="node">
<title>0</title>
<polygon fill="#f6d4bb" stroke="black" points="1051.88,-497.5 922.62,-497.5 922.62,-423.5 1051.88,-423.5 1051.88,-497.5"/>
<text text-anchor="middle" x="987.25" y="-480.2" font-family="Helvetica,sans-Serif" font-size="14.00">Sex &lt;= 0.5</text>
<text text-anchor="middle" x="987.25" y="-463.7" font-family="Helvetica,sans-Serif" font-size="14.00">samples = 569</text>
<text text-anchor="middle" x="987.25" y="-447.2" font-family="Helvetica,sans-Serif" font-size="14.00">value = [343, 226]</text>
<text text-anchor="middle" x="987.25" y="-430.7" font-family="Helvetica,sans-Serif" font-size="14.00">class = 0</text>
</g>
<!-- 1 -->
<g id="node2" class="node">
<title>1</title>
<polygon fill="#80c0ee" stroke="black" points="800.75,-387.5 679.75,-387.5 679.75,-313.5 800.75,-313.5 800.75,-387.5"/>
<text text-anchor="middle" x="740.25" y="-370.2" font-family="Helvetica,sans-Serif" font-size="14.00">Pclass &lt;= 2.5</text>
<text text-anchor="middle" x="740.25" y="-353.7" font-family="Helvetica,sans-Serif" font-size="14.00">samples = 212</text>
<text text-anchor="middle" x="740.25" y="-337.2" font-family="Helvetica,sans-Serif" font-size="14.00">value = [56, 156]</text>
<text text-anchor="middle" x="740.25" y="-320.7" font-family="Helvetica,sans-Serif" font-size="14.00">class = 1</text>
</g>
<!-- 0&#45;&gt;1 -->
<g id="edge1" class="edge">
<title>0&#45;&gt;1</title>
<path fill="none" stroke="black" d="M922.35,-431.12C888.14,-416.16 846.11,-397.79 811.06,-382.46"/>
<polygon fill="black" stroke="black" points="812.85,-379.42 802.28,-378.62 810.04,-385.84 812.85,-379.42"/>
<text text-anchor="middle" x="810.01" y="-396.25" font-family="Helvetica,sans-Serif" font-size="14.00">True</text>
</g>
<!-- 16 -->
<g id="node17" class="node">
<title>16</title>
<polygon fill="#eba069" stroke="black" points="1290.75,-387.5 1169.75,-387.5 1169.75,-313.5 1290.75,-313.5 1290.75,-387.5"/>
<text text-anchor="middle" x="1230.25" y="-370.2" font-family="Helvetica,sans-Serif" font-size="14.00">Pclass &lt;= 1.5</text>
<text text-anchor="middle" x="1230.25" y="-353.7" font-family="Helvetica,sans-Serif" font-size="14.00">samples = 357</text>
<text text-anchor="middle" x="1230.25" y="-337.2" font-family="Helvetica,sans-Serif" font-size="14.00">value = [287, 70]</text>
<text text-anchor="middle" x="1230.25" y="-320.7" font-family="Helvetica,sans-Serif" font-size="14.00">class = 0</text>
</g>
<!-- 0&#45;&gt;16 -->
<g id="edge16" class="edge">
<title>0&#45;&gt;16</title>
<path fill="none" stroke="black" d="M1052.37,-430.56C1085.37,-415.89 1125.49,-398.06 1159.28,-383.04"/>
<polygon fill="black" stroke="black" points="1160.45,-386.35 1168.16,-379.09 1157.6,-379.96 1160.45,-386.35"/>
<text text-anchor="middle" x="1160.57" y="-396.76" font-family="Helvetica,sans-Serif" font-size="14.00">False</text>
</g>
<!-- 2 -->
<g id="node3" class="node">
<title>2</title>
<polygon fill="#45a3e7" stroke="black" points="416.38,-277.5 302.12,-277.5 302.12,-203.5 416.38,-203.5 416.38,-277.5"/>
<text text-anchor="middle" x="359.25" y="-260.2" font-family="Helvetica,sans-Serif" font-size="14.00">Fare &lt;= 28.856</text>
<text text-anchor="middle" x="359.25" y="-243.7" font-family="Helvetica,sans-Serif" font-size="14.00">samples = 125</text>
<text text-anchor="middle" x="359.25" y="-227.2" font-family="Helvetica,sans-Serif" font-size="14.00">value = [7, 118]</text>
<text text-anchor="middle" x="359.25" y="-210.7" font-family="Helvetica,sans-Serif" font-size="14.00">class = 1</text>
</g>
<!-- 1&#45;&gt;2 -->
<g id="edge2" class="edge">
<title>1&#45;&gt;2</title>
<path fill="none" stroke="black" d="M679.46,-332.27C610.72,-312.78 499.06,-281.13 427.41,-260.82"/>
<polygon fill="black" stroke="black" points="428.74,-257.56 418.16,-258.2 426.83,-264.29 428.74,-257.56"/>
</g>
<!-- 9 -->
<g id="node10" class="node">
<title>9</title>
<polygon fill="#f9e3d3" stroke="black" points="796.62,-277.5 683.88,-277.5 683.88,-203.5 796.62,-203.5 796.62,-277.5"/>
<text text-anchor="middle" x="740.25" y="-260.2" font-family="Helvetica,sans-Serif" font-size="14.00">Fare &lt;= 20.8</text>
<text text-anchor="middle" x="740.25" y="-243.7" font-family="Helvetica,sans-Serif" font-size="14.00">samples = 87</text>
<text text-anchor="middle" x="740.25" y="-227.2" font-family="Helvetica,sans-Serif" font-size="14.00">value = [49, 38]</text>
<text text-anchor="middle" x="740.25" y="-210.7" font-family="Helvetica,sans-Serif" font-size="14.00">class = 0</text>
</g>
<!-- 1&#45;&gt;9 -->
<g id="edge9" class="edge">
<title>1&#45;&gt;9</title>
<path fill="none" stroke="black" d="M740.25,-313.24C740.25,-305.49 740.25,-297.2 740.25,-289.1"/>
<polygon fill="black" stroke="black" points="743.75,-289.36 740.25,-279.36 736.75,-289.36 743.75,-289.36"/>
</g>
<!-- 3 -->
<g id="node4" class="node">
<title>3</title>
<polygon fill="#50a9e8" stroke="black" points="227.38,-167.5 113.12,-167.5 113.12,-93.5 227.38,-93.5 227.38,-167.5"/>
<text text-anchor="middle" x="170.25" y="-150.2" font-family="Helvetica,sans-Serif" font-size="14.00">Fare &lt;= 28.231</text>
<text text-anchor="middle" x="170.25" y="-133.7" font-family="Helvetica,sans-Serif" font-size="14.00">samples = 57</text>
<text text-anchor="middle" x="170.25" y="-117.2" font-family="Helvetica,sans-Serif" font-size="14.00">value = [6, 51]</text>
<text text-anchor="middle" x="170.25" y="-100.7" font-family="Helvetica,sans-Serif" font-size="14.00">class = 1</text>
</g>
<!-- 2&#45;&gt;3 -->
<g id="edge3" class="edge">
<title>2&#45;&gt;3</title>
<path fill="none" stroke="black" d="M301.77,-206.66C281.52,-195.08 258.58,-181.97 237.59,-169.98"/>
<polygon fill="black" stroke="black" points="239.51,-167.05 229.09,-165.12 236.04,-173.12 239.51,-167.05"/>
</g>
<!-- 6 -->
<g id="node7" class="node">
<title>6</title>
<polygon fill="#3c9ee5" stroke="black" points="420.5,-167.5 298,-167.5 298,-93.5 420.5,-93.5 420.5,-167.5"/>
<text text-anchor="middle" x="359.25" y="-150.2" font-family="Helvetica,sans-Serif" font-size="14.00">Fare &lt;= 149.035</text>
<text text-anchor="middle" x="359.25" y="-133.7" font-family="Helvetica,sans-Serif" font-size="14.00">samples = 68</text>
<text text-anchor="middle" x="359.25" y="-117.2" font-family="Helvetica,sans-Serif" font-size="14.00">value = [1, 67]</text>
<text text-anchor="middle" x="359.25" y="-100.7" font-family="Helvetica,sans-Serif" font-size="14.00">class = 1</text>
</g>
<!-- 2&#45;&gt;6 -->
<g id="edge6" class="edge">
<title>2&#45;&gt;6</title>
<path fill="none" stroke="black" d="M359.25,-203.24C359.25,-195.49 359.25,-187.2 359.25,-179.1"/>
<polygon fill="black" stroke="black" points="362.75,-179.36 359.25,-169.36 355.75,-179.36 362.75,-179.36"/>
</g>
<!-- 4 -->
<g id="node5" class="node">
<title>4</title>
<polygon fill="#4ca7e8" stroke="black" points="104.5,-57.5 0,-57.5 0,0 104.5,0 104.5,-57.5"/>
<text text-anchor="middle" x="52.25" y="-40.2" font-family="Helvetica,sans-Serif" font-size="14.00">samples = 56</text>
<text text-anchor="middle" x="52.25" y="-23.7" font-family="Helvetica,sans-Serif" font-size="14.00">value = [5, 51]</text>
<text text-anchor="middle" x="52.25" y="-7.2" font-family="Helvetica,sans-Serif" font-size="14.00">class = 1</text>
</g>
<!-- 3&#45;&gt;4 -->
<g id="edge4" class="edge">
<title>3&#45;&gt;4</title>
<path fill="none" stroke="black" d="M127.32,-93.21C116.4,-83.98 104.68,-74.07 93.83,-64.9"/>
<polygon fill="black" stroke="black" points="96.4,-62.49 86.5,-58.7 91.88,-67.83 96.4,-62.49"/>
</g>
<!-- 5 -->
<g id="node6" class="node">
<title>5</title>
<polygon fill="#e58139" stroke="black" points="218.38,-57.5 122.12,-57.5 122.12,0 218.38,0 218.38,-57.5"/>
<text text-anchor="middle" x="170.25" y="-40.2" font-family="Helvetica,sans-Serif" font-size="14.00">samples = 1</text>
<text text-anchor="middle" x="170.25" y="-23.7" font-family="Helvetica,sans-Serif" font-size="14.00">value = [1, 0]</text>
<text text-anchor="middle" x="170.25" y="-7.2" font-family="Helvetica,sans-Serif" font-size="14.00">class = 0</text>
</g>
<!-- 3&#45;&gt;5 -->
<g id="edge5" class="edge">
<title>3&#45;&gt;5</title>
<path fill="none" stroke="black" d="M170.25,-93.21C170.25,-85.35 170.25,-77 170.25,-69.03"/>
<polygon fill="black" stroke="black" points="173.75,-69.24 170.25,-59.24 166.75,-69.24 173.75,-69.24"/>
</g>
<!-- 7 -->
<g id="node8" class="node">
<title>7</title>
<polygon fill="#399de5" stroke="black" points="340.5,-57.5 236,-57.5 236,0 340.5,0 340.5,-57.5"/>
<text text-anchor="middle" x="288.25" y="-40.2" font-family="Helvetica,sans-Serif" font-size="14.00">samples = 56</text>
<text text-anchor="middle" x="288.25" y="-23.7" font-family="Helvetica,sans-Serif" font-size="14.00">value = [0, 56]</text>
<text text-anchor="middle" x="288.25" y="-7.2" font-family="Helvetica,sans-Serif" font-size="14.00">class = 1</text>
</g>
<!-- 6&#45;&gt;7 -->
<g id="edge7" class="edge">
<title>6&#45;&gt;7</title>
<path fill="none" stroke="black" d="M333.42,-93.21C327.37,-84.71 320.91,-75.64 314.83,-67.09"/>
<polygon fill="black" stroke="black" points="317.69,-65.08 309.04,-58.96 311.99,-69.14 317.69,-65.08"/>
</g>
<!-- 8 -->
<g id="node9" class="node">
<title>8</title>
<polygon fill="#4ba6e7" stroke="black" points="463.5,-57.5 359,-57.5 359,0 463.5,0 463.5,-57.5"/>
<text text-anchor="middle" x="411.25" y="-40.2" font-family="Helvetica,sans-Serif" font-size="14.00">samples = 12</text>
<text text-anchor="middle" x="411.25" y="-23.7" font-family="Helvetica,sans-Serif" font-size="14.00">value = [1, 11]</text>
<text text-anchor="middle" x="411.25" y="-7.2" font-family="Helvetica,sans-Serif" font-size="14.00">class = 1</text>
</g>
<!-- 6&#45;&gt;8 -->
<g id="edge8" class="edge">
<title>6&#45;&gt;8</title>
<path fill="none" stroke="black" d="M378.17,-93.21C382.46,-84.98 387.02,-76.22 391.35,-67.92"/>
<polygon fill="black" stroke="black" points="394.45,-69.56 395.97,-59.07 388.24,-66.32 394.45,-69.56"/>
</g>
<!-- 10 -->
<g id="node11" class="node">
<title>10</title>
<polygon fill="#e8f4fc" stroke="black" points="729.62,-167.5 616.88,-167.5 616.88,-93.5 729.62,-93.5 729.62,-167.5"/>
<text text-anchor="middle" x="673.25" y="-150.2" font-family="Helvetica,sans-Serif" font-size="14.00">Age &lt;= 16.5</text>
<text text-anchor="middle" x="673.25" y="-133.7" font-family="Helvetica,sans-Serif" font-size="14.00">samples = 66</text>
<text text-anchor="middle" x="673.25" y="-117.2" font-family="Helvetica,sans-Serif" font-size="14.00">value = [31, 35]</text>
<text text-anchor="middle" x="673.25" y="-100.7" font-family="Helvetica,sans-Serif" font-size="14.00">class = 1</text>
</g>
<!-- 9&#45;&gt;10 -->
<g id="edge10" class="edge">
<title>9&#45;&gt;10</title>
<path fill="none" stroke="black" d="M717.75,-203.24C712.62,-194.96 707.09,-186.05 701.74,-177.42"/>
<polygon fill="black" stroke="black" points="704.84,-175.79 696.6,-169.14 698.9,-179.48 704.84,-175.79"/>
</g>
<!-- 13 -->
<g id="node14" class="node">
<title>13</title>
<polygon fill="#e9965a" stroke="black" points="860.5,-167.5 756,-167.5 756,-93.5 860.5,-93.5 860.5,-167.5"/>
<text text-anchor="middle" x="808.25" y="-150.2" font-family="Helvetica,sans-Serif" font-size="14.00">Age &lt;= 5.5</text>
<text text-anchor="middle" x="808.25" y="-133.7" font-family="Helvetica,sans-Serif" font-size="14.00">samples = 21</text>
<text text-anchor="middle" x="808.25" y="-117.2" font-family="Helvetica,sans-Serif" font-size="14.00">value = [18, 3]</text>
<text text-anchor="middle" x="808.25" y="-100.7" font-family="Helvetica,sans-Serif" font-size="14.00">class = 0</text>
</g>
<!-- 9&#45;&gt;13 -->
<g id="edge13" class="edge">
<title>9&#45;&gt;13</title>
<path fill="none" stroke="black" d="M763.08,-203.24C768.3,-194.96 773.9,-186.05 779.34,-177.42"/>
<polygon fill="black" stroke="black" points="782.19,-179.46 784.56,-169.13 776.27,-175.73 782.19,-179.46"/>
</g>
<!-- 11 -->
<g id="node12" class="node">
<title>11</title>
<polygon fill="#6ab6ec" stroke="black" points="586.5,-57.5 482,-57.5 482,0 586.5,0 586.5,-57.5"/>
<text text-anchor="middle" x="534.25" y="-40.2" font-family="Helvetica,sans-Serif" font-size="14.00">samples = 15</text>
<text text-anchor="middle" x="534.25" y="-23.7" font-family="Helvetica,sans-Serif" font-size="14.00">value = [3, 12]</text>
<text text-anchor="middle" x="534.25" y="-7.2" font-family="Helvetica,sans-Serif" font-size="14.00">class = 1</text>
</g>
<!-- 10&#45;&gt;11 -->
<g id="edge11" class="edge">
<title>10&#45;&gt;11</title>
<path fill="none" stroke="black" d="M622.67,-93.21C609.56,-83.79 595.47,-73.68 582.47,-64.36"/>
<polygon fill="black" stroke="black" points="584.63,-61.6 574.47,-58.61 580.55,-67.28 584.63,-61.6"/>
</g>
<!-- 12 -->
<g id="node13" class="node">
<title>12</title>
<polygon fill="#fae8dc" stroke="black" points="741.62,-57.5 604.88,-57.5 604.88,0 741.62,0 741.62,-57.5"/>
<text text-anchor="middle" x="673.25" y="-40.2" font-family="Helvetica,sans-Serif" font-size="14.00">samples = 51</text>
<text text-anchor="middle" x="673.25" y="-23.7" font-family="Helvetica,sans-Serif" font-size="14.00">value = [28.0, 23.0]</text>
<text text-anchor="middle" x="673.25" y="-7.2" font-family="Helvetica,sans-Serif" font-size="14.00">class = 0</text>
</g>
<!-- 10&#45;&gt;12 -->
<g id="edge12" class="edge">
<title>10&#45;&gt;12</title>
<path fill="none" stroke="black" d="M673.25,-93.21C673.25,-85.35 673.25,-77 673.25,-69.03"/>
<polygon fill="black" stroke="black" points="676.75,-69.24 673.25,-59.24 669.75,-69.24 676.75,-69.24"/>
</g>
<!-- 14 -->
<g id="node15" class="node">
<title>14</title>
<polygon fill="#f6d5bd" stroke="black" points="856.38,-57.5 760.12,-57.5 760.12,0 856.38,0 856.38,-57.5"/>
<text text-anchor="middle" x="808.25" y="-40.2" font-family="Helvetica,sans-Serif" font-size="14.00">samples = 5</text>
<text text-anchor="middle" x="808.25" y="-23.7" font-family="Helvetica,sans-Serif" font-size="14.00">value = [3, 2]</text>
<text text-anchor="middle" x="808.25" y="-7.2" font-family="Helvetica,sans-Serif" font-size="14.00">class = 0</text>
</g>
<!-- 13&#45;&gt;14 -->
<g id="edge14" class="edge">
<title>13&#45;&gt;14</title>
<path fill="none" stroke="black" d="M808.25,-93.21C808.25,-85.35 808.25,-77 808.25,-69.03"/>
<polygon fill="black" stroke="black" points="811.75,-69.24 808.25,-59.24 804.75,-69.24 811.75,-69.24"/>
</g>
<!-- 15 -->
<g id="node16" class="node">
<title>15</title>
<polygon fill="#e78946" stroke="black" points="978.5,-57.5 874,-57.5 874,0 978.5,0 978.5,-57.5"/>
<text text-anchor="middle" x="926.25" y="-40.2" font-family="Helvetica,sans-Serif" font-size="14.00">samples = 16</text>
<text text-anchor="middle" x="926.25" y="-23.7" font-family="Helvetica,sans-Serif" font-size="14.00">value = [15, 1]</text>
<text text-anchor="middle" x="926.25" y="-7.2" font-family="Helvetica,sans-Serif" font-size="14.00">class = 0</text>
</g>
<!-- 13&#45;&gt;15 -->
<g id="edge15" class="edge">
<title>13&#45;&gt;15</title>
<path fill="none" stroke="black" d="M851.18,-93.21C862.1,-83.98 873.82,-74.07 884.67,-64.9"/>
<polygon fill="black" stroke="black" points="886.62,-67.83 892,-58.7 882.1,-62.49 886.62,-67.83"/>
</g>
<!-- 17 -->
<g id="node18" class="node">
<title>17</title>
<polygon fill="#f6d5bd" stroke="black" points="1286.62,-277.5 1173.88,-277.5 1173.88,-203.5 1286.62,-203.5 1286.62,-277.5"/>
<text text-anchor="middle" x="1230.25" y="-260.2" font-family="Helvetica,sans-Serif" font-size="14.00">Age &lt;= 43.0</text>
<text text-anchor="middle" x="1230.25" y="-243.7" font-family="Helvetica,sans-Serif" font-size="14.00">samples = 80</text>
<text text-anchor="middle" x="1230.25" y="-227.2" font-family="Helvetica,sans-Serif" font-size="14.00">value = [48, 32]</text>
<text text-anchor="middle" x="1230.25" y="-210.7" font-family="Helvetica,sans-Serif" font-size="14.00">class = 0</text>
</g>
<!-- 16&#45;&gt;17 -->
<g id="edge17" class="edge">
<title>16&#45;&gt;17</title>
<path fill="none" stroke="black" d="M1230.25,-313.24C1230.25,-305.49 1230.25,-297.2 1230.25,-289.1"/>
<polygon fill="black" stroke="black" points="1233.75,-289.36 1230.25,-279.36 1226.75,-289.36 1233.75,-289.36"/>
</g>
<!-- 24 -->
<g id="node25" class="node">
<title>24</title>
<polygon fill="#e99558" stroke="black" points="1649.75,-277.5 1528.75,-277.5 1528.75,-203.5 1649.75,-203.5 1649.75,-277.5"/>
<text text-anchor="middle" x="1589.25" y="-260.2" font-family="Helvetica,sans-Serif" font-size="14.00">Age &lt;= 9.5</text>
<text text-anchor="middle" x="1589.25" y="-243.7" font-family="Helvetica,sans-Serif" font-size="14.00">samples = 277</text>
<text text-anchor="middle" x="1589.25" y="-227.2" font-family="Helvetica,sans-Serif" font-size="14.00">value = [239, 38]</text>
<text text-anchor="middle" x="1589.25" y="-210.7" font-family="Helvetica,sans-Serif" font-size="14.00">class = 0</text>
</g>
<!-- 16&#45;&gt;24 -->
<g id="edge24" class="edge">
<title>16&#45;&gt;24</title>
<path fill="none" stroke="black" d="M1291.15,-331.18C1353.78,-312.34 1451.27,-283.01 1517.58,-263.06"/>
<polygon fill="black" stroke="black" points="1518.34,-266.49 1526.9,-260.26 1516.32,-259.79 1518.34,-266.49"/>
</g>
<!-- 18 -->
<g id="node19" class="node">
<title>18</title>
<polygon fill="#d6ebfa" stroke="black" points="1224.38,-167.5 1110.12,-167.5 1110.12,-93.5 1224.38,-93.5 1224.38,-167.5"/>
<text text-anchor="middle" x="1167.25" y="-150.2" font-family="Helvetica,sans-Serif" font-size="14.00">Fare &lt;= 15.644</text>
<text text-anchor="middle" x="1167.25" y="-133.7" font-family="Helvetica,sans-Serif" font-size="14.00">samples = 43</text>
<text text-anchor="middle" x="1167.25" y="-117.2" font-family="Helvetica,sans-Serif" font-size="14.00">value = [19, 24]</text>
<text text-anchor="middle" x="1167.25" y="-100.7" font-family="Helvetica,sans-Serif" font-size="14.00">class = 1</text>
</g>
<!-- 17&#45;&gt;18 -->
<g id="edge18" class="edge">
<title>17&#45;&gt;18</title>
<path fill="none" stroke="black" d="M1209.1,-203.24C1204.32,-195.04 1199.18,-186.24 1194.2,-177.7"/>
<polygon fill="black" stroke="black" points="1197.28,-176.03 1189.22,-169.16 1191.23,-179.56 1197.28,-176.03"/>
</g>
<!-- 21 -->
<g id="node22" class="node">
<title>21</title>
<polygon fill="#eca470" stroke="black" points="1346.5,-167.5 1242,-167.5 1242,-93.5 1346.5,-93.5 1346.5,-167.5"/>
<text text-anchor="middle" x="1294.25" y="-150.2" font-family="Helvetica,sans-Serif" font-size="14.00">Age &lt;= 75.5</text>
<text text-anchor="middle" x="1294.25" y="-133.7" font-family="Helvetica,sans-Serif" font-size="14.00">samples = 37</text>
<text text-anchor="middle" x="1294.25" y="-117.2" font-family="Helvetica,sans-Serif" font-size="14.00">value = [29, 8]</text>
<text text-anchor="middle" x="1294.25" y="-100.7" font-family="Helvetica,sans-Serif" font-size="14.00">class = 0</text>
</g>
<!-- 17&#45;&gt;21 -->
<g id="edge21" class="edge">
<title>17&#45;&gt;21</title>
<path fill="none" stroke="black" d="M1251.74,-203.24C1256.59,-195.04 1261.81,-186.24 1266.87,-177.7"/>
<polygon fill="black" stroke="black" points="1269.85,-179.54 1271.94,-169.15 1263.83,-175.97 1269.85,-179.54"/>
</g>
<!-- 19 -->
<g id="node20" class="node">
<title>19</title>
<polygon fill="#e58139" stroke="black" points="1092.38,-57.5 996.12,-57.5 996.12,0 1092.38,0 1092.38,-57.5"/>
<text text-anchor="middle" x="1044.25" y="-40.2" font-family="Helvetica,sans-Serif" font-size="14.00">samples = 3</text>
<text text-anchor="middle" x="1044.25" y="-23.7" font-family="Helvetica,sans-Serif" font-size="14.00">value = [3, 0]</text>
<text text-anchor="middle" x="1044.25" y="-7.2" font-family="Helvetica,sans-Serif" font-size="14.00">class = 0</text>
</g>
<!-- 18&#45;&gt;19 -->
<g id="edge19" class="edge">
<title>18&#45;&gt;19</title>
<path fill="none" stroke="black" d="M1122.5,-93.21C1111.11,-83.98 1098.9,-74.07 1087.59,-64.9"/>
<polygon fill="black" stroke="black" points="1089.9,-62.26 1079.92,-58.68 1085.49,-67.7 1089.9,-62.26"/>
</g>
<!-- 20 -->
<g id="node21" class="node">
<title>20</title>
<polygon fill="#bddef6" stroke="black" points="1223.62,-57.5 1110.88,-57.5 1110.88,0 1223.62,0 1223.62,-57.5"/>
<text text-anchor="middle" x="1167.25" y="-40.2" font-family="Helvetica,sans-Serif" font-size="14.00">samples = 40</text>
<text text-anchor="middle" x="1167.25" y="-23.7" font-family="Helvetica,sans-Serif" font-size="14.00">value = [16, 24]</text>
<text text-anchor="middle" x="1167.25" y="-7.2" font-family="Helvetica,sans-Serif" font-size="14.00">class = 1</text>
</g>
<!-- 18&#45;&gt;20 -->
<g id="edge20" class="edge">
<title>18&#45;&gt;20</title>
<path fill="none" stroke="black" d="M1167.25,-93.21C1167.25,-85.35 1167.25,-77 1167.25,-69.03"/>
<polygon fill="black" stroke="black" points="1170.75,-69.24 1167.25,-59.24 1163.75,-69.24 1170.75,-69.24"/>
</g>
<!-- 22 -->
<g id="node23" class="node">
<title>22</title>
<polygon fill="#eb9f69" stroke="black" points="1346.5,-57.5 1242,-57.5 1242,0 1346.5,0 1346.5,-57.5"/>
<text text-anchor="middle" x="1294.25" y="-40.2" font-family="Helvetica,sans-Serif" font-size="14.00">samples = 36</text>
<text text-anchor="middle" x="1294.25" y="-23.7" font-family="Helvetica,sans-Serif" font-size="14.00">value = [29, 7]</text>
<text text-anchor="middle" x="1294.25" y="-7.2" font-family="Helvetica,sans-Serif" font-size="14.00">class = 0</text>
</g>
<!-- 21&#45;&gt;22 -->
<g id="edge22" class="edge">
<title>21&#45;&gt;22</title>
<path fill="none" stroke="black" d="M1294.25,-93.21C1294.25,-85.35 1294.25,-77 1294.25,-69.03"/>
<polygon fill="black" stroke="black" points="1297.75,-69.24 1294.25,-59.24 1290.75,-69.24 1297.75,-69.24"/>
</g>
<!-- 23 -->
<g id="node24" class="node">
<title>23</title>
<polygon fill="#399de5" stroke="black" points="1460.38,-57.5 1364.12,-57.5 1364.12,0 1460.38,0 1460.38,-57.5"/>
<text text-anchor="middle" x="1412.25" y="-40.2" font-family="Helvetica,sans-Serif" font-size="14.00">samples = 1</text>
<text text-anchor="middle" x="1412.25" y="-23.7" font-family="Helvetica,sans-Serif" font-size="14.00">value = [0, 1]</text>
<text text-anchor="middle" x="1412.25" y="-7.2" font-family="Helvetica,sans-Serif" font-size="14.00">class = 1</text>
</g>
<!-- 21&#45;&gt;23 -->
<g id="edge23" class="edge">
<title>21&#45;&gt;23</title>
<path fill="none" stroke="black" d="M1337.18,-93.21C1348.1,-83.98 1359.82,-74.07 1370.67,-64.9"/>
<polygon fill="black" stroke="black" points="1372.62,-67.83 1378,-58.7 1368.1,-62.49 1372.62,-67.83"/>
</g>
<!-- 25 -->
<g id="node26" class="node">
<title>25</title>
<polygon fill="#ffffff" stroke="black" points="1645.62,-167.5 1532.88,-167.5 1532.88,-93.5 1645.62,-93.5 1645.62,-167.5"/>
<text text-anchor="middle" x="1589.25" y="-150.2" font-family="Helvetica,sans-Serif" font-size="14.00">SibSp &lt;= 2.5</text>
<text text-anchor="middle" x="1589.25" y="-133.7" font-family="Helvetica,sans-Serif" font-size="14.00">samples = 22</text>
<text text-anchor="middle" x="1589.25" y="-117.2" font-family="Helvetica,sans-Serif" font-size="14.00">value = [11, 11]</text>
<text text-anchor="middle" x="1589.25" y="-100.7" font-family="Helvetica,sans-Serif" font-size="14.00">class = 0</text>
</g>
<!-- 24&#45;&gt;25 -->
<g id="edge25" class="edge">
<title>24&#45;&gt;25</title>
<path fill="none" stroke="black" d="M1589.25,-203.24C1589.25,-195.49 1589.25,-187.2 1589.25,-179.1"/>
<polygon fill="black" stroke="black" points="1592.75,-179.36 1589.25,-169.36 1585.75,-179.36 1592.75,-179.36"/>
</g>
<!-- 28 -->
<g id="node29" class="node">
<title>28</title>
<polygon fill="#e89050" stroke="black" points="1844.75,-167.5 1723.75,-167.5 1723.75,-93.5 1844.75,-93.5 1844.75,-167.5"/>
<text text-anchor="middle" x="1784.25" y="-150.2" font-family="Helvetica,sans-Serif" font-size="14.00">Fare &lt;= 51.698</text>
<text text-anchor="middle" x="1784.25" y="-133.7" font-family="Helvetica,sans-Serif" font-size="14.00">samples = 255</text>
<text text-anchor="middle" x="1784.25" y="-117.2" font-family="Helvetica,sans-Serif" font-size="14.00">value = [228, 27]</text>
<text text-anchor="middle" x="1784.25" y="-100.7" font-family="Helvetica,sans-Serif" font-size="14.00">class = 0</text>
</g>
<!-- 24&#45;&gt;28 -->
<g id="edge28" class="edge">
<title>24&#45;&gt;28</title>
<path fill="none" stroke="black" d="M1650.15,-205.77C1670.22,-194.66 1692.71,-182.2 1713.45,-170.71"/>
<polygon fill="black" stroke="black" points="1715.1,-173.8 1722.16,-165.89 1711.71,-167.67 1715.1,-173.8"/>
</g>
<!-- 26 -->
<g id="node27" class="node">
<title>26</title>
<polygon fill="#399de5" stroke="black" points="1582.5,-57.5 1478,-57.5 1478,0 1582.5,0 1582.5,-57.5"/>
<text text-anchor="middle" x="1530.25" y="-40.2" font-family="Helvetica,sans-Serif" font-size="14.00">samples = 11</text>
<text text-anchor="middle" x="1530.25" y="-23.7" font-family="Helvetica,sans-Serif" font-size="14.00">value = [0, 11]</text>
<text text-anchor="middle" x="1530.25" y="-7.2" font-family="Helvetica,sans-Serif" font-size="14.00">class = 1</text>
</g>
<!-- 25&#45;&gt;26 -->
<g id="edge26" class="edge">
<title>25&#45;&gt;26</title>
<path fill="none" stroke="black" d="M1567.78,-93.21C1562.81,-84.8 1557.51,-75.83 1552.5,-67.37"/>
<polygon fill="black" stroke="black" points="1555.67,-65.86 1547.57,-59.03 1549.65,-69.42 1555.67,-65.86"/>
</g>
<!-- 27 -->
<g id="node28" class="node">
<title>27</title>
<polygon fill="#e58139" stroke="black" points="1705.5,-57.5 1601,-57.5 1601,0 1705.5,0 1705.5,-57.5"/>
<text text-anchor="middle" x="1653.25" y="-40.2" font-family="Helvetica,sans-Serif" font-size="14.00">samples = 11</text>
<text text-anchor="middle" x="1653.25" y="-23.7" font-family="Helvetica,sans-Serif" font-size="14.00">value = [11, 0]</text>
<text text-anchor="middle" x="1653.25" y="-7.2" font-family="Helvetica,sans-Serif" font-size="14.00">class = 0</text>
</g>
<!-- 25&#45;&gt;27 -->
<g id="edge27" class="edge">
<title>25&#45;&gt;27</title>
<path fill="none" stroke="black" d="M1612.54,-93.21C1617.93,-84.8 1623.68,-75.83 1629.11,-67.37"/>
<polygon fill="black" stroke="black" points="1632.03,-69.31 1634.48,-59 1626.14,-65.53 1632.03,-69.31"/>
</g>
<!-- 29 -->
<g id="node30" class="node">
<title>29</title>
<polygon fill="#e88e4e" stroke="black" points="1844.75,-57.5 1723.75,-57.5 1723.75,0 1844.75,0 1844.75,-57.5"/>
<text text-anchor="middle" x="1784.25" y="-40.2" font-family="Helvetica,sans-Serif" font-size="14.00">samples = 249</text>
<text text-anchor="middle" x="1784.25" y="-23.7" font-family="Helvetica,sans-Serif" font-size="14.00">value = [225, 24]</text>
<text text-anchor="middle" x="1784.25" y="-7.2" font-family="Helvetica,sans-Serif" font-size="14.00">class = 0</text>
</g>
<!-- 28&#45;&gt;29 -->
<g id="edge29" class="edge">
<title>28&#45;&gt;29</title>
<path fill="none" stroke="black" d="M1784.25,-93.21C1784.25,-85.35 1784.25,-77 1784.25,-69.03"/>
<polygon fill="black" stroke="black" points="1787.75,-69.24 1784.25,-59.24 1780.75,-69.24 1787.75,-69.24"/>
</g>
<!-- 30 -->
<g id="node31" class="node">
<title>30</title>
<polygon fill="#ffffff" stroke="black" points="1959.38,-57.5 1863.12,-57.5 1863.12,0 1959.38,0 1959.38,-57.5"/>
<text text-anchor="middle" x="1911.25" y="-40.2" font-family="Helvetica,sans-Serif" font-size="14.00">samples = 6</text>
<text text-anchor="middle" x="1911.25" y="-23.7" font-family="Helvetica,sans-Serif" font-size="14.00">value = [3, 3]</text>
<text text-anchor="middle" x="1911.25" y="-7.2" font-family="Helvetica,sans-Serif" font-size="14.00">class = 0</text>
</g>
<!-- 28&#45;&gt;30 -->
<g id="edge30" class="edge">
<title>28&#45;&gt;30</title>
<path fill="none" stroke="black" d="M1830.46,-93.21C1842.33,-83.88 1855.07,-73.88 1866.84,-64.63"/>
<polygon fill="black" stroke="black" points="1868.74,-67.59 1874.44,-58.66 1864.41,-62.09 1868.74,-67.59"/>
</g>
</g>
</svg>
